<svg viewBox="0 0 392.88727 420.53616" 
  xmlns="http://www.w3.org/2000/svg">
  <path id="tree" d="m 221.69257,420.4045 c -2.72504,-0.0724 -8.07462,-0.5388 -11.88795,-1.0364 -3.81334,-0.49761 -11.24311,-1.45556 -16.51062,-2.12876 -5.2675,-0.67321 -10.20304,-1.46415 -10.96788,-1.75765 -1.10583,-0.42435 -1.24527,-4.16634 -0.68092,-18.27291 0.44481,-11.11826 0.23915,-22.71584 -0.55102,-31.07262 -0.69339,-7.33334 -1.97719,-17.41334 -2.85289,-22.4 -0.8757,-4.98667 -2.57371,-13.62667 -3.77336,-19.2 -1.19963,-5.57334 -3.15146,-13.49334 -4.33739,-17.6 -1.18592,-4.10667 -4.05829,-12.50667 -6.38302,-18.66667 -2.32475,-6.16 -6.18445,-14.8 -8.57711,-19.2 -2.39267,-4.4 -6.90736,-11.40833 -10.03264,-15.57407 -3.12529,-4.16573 -7.76407,-9.49292 -10.30839,-11.8382 -2.54432,-2.34527 -6.77147,-5.52145 -9.39368,-7.05816 -2.62221,-1.53672 -6.91193,-3.5623 -9.5327,-4.5013 -2.62077,-0.939 -8.60505,-2.39384 -13.29838,-3.23298 -4.693337,-0.83914 -12.433337,-1.52636 -17.199997,-1.52716 -4.76667,-8e-4 -10.16667,0.29854 -12,0.6652 -2.94254,0.58852 -3.33334,1.08838 -3.33334,4.2636 0,2.61417 -1.02245,4.72866 -3.74225,7.73914 -2.05823,2.27822 -6.25823,5.21155 -9.33333,6.5185 -3.07509,1.30696 -7.11676,3.52259 -8.98148,4.92364 l -3.3904,2.54735 -0.73009,-5.84345 c -0.40155,-3.21389 -0.40665,-7.17214 -0.0113,-8.7961 0.39531,-1.62397 1.92442,-4.7951 3.398,-7.04695 1.69283,-2.58687 4.4263,-4.86706 7.4244,-6.19327 3.06611,-1.35629 6.71863,-2.02876 10.32248,-1.9005 3.06754,0.10917 9.17735,-0.76779 13.57735,-1.94881 4.4,-1.18102 10.51157,-2.48725 13.58127,-2.90275 l 5.58125,-0.75543 -4.08277,-4.96915 c -2.24552,-2.73303 -5.06685,-6.64915 -6.26961,-8.70248 -1.20276,-2.05334 -3.05226,-6.61334 -4.10997,-10.13334 -1.05772,-3.52 -2.02335,-6.55539 -2.14586,-6.74532 -0.12249,-0.18992 -1.6835,0.41008 -3.46888,1.33333 -1.78539,0.92327 -5.07,1.66812 -7.29913,1.65524 -2.22913,-0.0129 -5.97297,-0.90823 -8.31964,-1.98964 -2.34666,-1.08141 -6.42666,-3.88047 -9.06666,-6.22012 -2.64,-2.33965 -6.39397,-5.07421 -8.34215,-6.07679 -2.65318,-1.36539 -3.26163,-2.16089 -2.42439,-3.16969 0.61477,-0.74076 3.70903,-2.65789 6.87615,-4.2603 3.88585,-1.96606 7.46853,-2.92672 11.01743,-2.95421 2.89248,-0.0224 7.01759,0.69403 9.16692,1.59208 2.14932,0.89805 5.57912,3.30406 7.62177,5.34671 2.67765,2.67765 4.19759,5.58055 5.44747,10.40399 0.95347,3.67956 2.71399,8.63889 3.91227,11.02074 1.19828,2.38186 3.91285,6.62732 6.03238,9.43436 2.11953,2.80704 6.53469,7.21003 9.811457,9.78441 4.77083,3.74818 7.32476,4.9197 12.81924,5.88036 3.77379,0.65982 9.26145,1.96263 12.19478,2.89516 2.93333,0.93251 7.20233,2.63463 9.48665,3.78248 l 4.15331,2.087 -0.69502,-3.47508 c -0.38226,-1.9113 -1.17698,-11.67625 -1.76607,-21.6999 -0.58908,-10.02364 -1.59988,-22.54481 -2.24623,-27.82481 -0.64636,-5.28 -2.1347,-12.72 -3.30742,-16.53333 -1.17273,-3.81333 -3.09116,-8.81811 -4.26318,-11.12174 -1.17203,-2.30361 -4.59061,-6.7891 -7.59682,-9.96774 -3.00623,-3.17865 -8.60916,-7.64673 -12.45094,-9.9291 -3.84178,-2.28236 -10.402577,-5.34376 -14.579537,-6.80311 -4.17696,-1.45933 -9.50761,-2.95927 -11.84591,-3.33318 -3.86376,-0.61783 -4.47059,-0.38341 -6.65471,2.57075 -1.32179,1.78783 -3.78315,3.82216 -5.46969,4.52075 -1.68655,0.69859 -5.15933,1.03427 -7.71729,0.74595 -2.55797,-0.28832 -7.95001,-1.75535 -11.98232,-3.26005 -4.03232,-1.50471 -8.19927,-3.00593 -9.2599,-3.33607 -1.76303,-0.54875 -1.684648,-0.91981 0.91397,-4.32679 1.56331,-2.0496 4.3511,-4.64223 6.19508,-5.76138 1.84398,-1.11915 4.95696,-2.37447 6.91774,-2.78958 1.96078,-0.41512 5.73024,-0.43007 8.37658,-0.0332 3.7612,0.56403 5.84148,1.75148 9.52969,5.43969 4.2729,4.2729 5.20271,4.71816 9.85279,4.71816 2.82406,0 8.83565,0.94656 13.35912,2.10347 4.523447,1.15691 11.680237,3.90804 15.903957,6.11363 5.2875,2.7611 10.64135,6.92342 17.18862,13.3632 5.23003,5.14417 9.67003,9.35304 9.86667,9.35304 0.19664,0 0.35792,-1.8 0.3584,-4 4.8e-4,-2.2 0.74727,-7.6 1.65952,-12 0.91226,-4.4 2.81621,-12.56 4.23103,-18.13334 1.41481,-5.57333 3.7523,-13.493333 5.19441,-17.6 1.44212,-4.106666 2.65258,-6.986666 2.68989,-6.4 0.0373,0.586667 -0.63581,3.385925 -1.49584,6.220572 -0.86002,2.834649 -2.77106,11.234648 -4.24675,18.666678 -1.47568,7.43201 -3.13269,17.83275 -3.68222,23.11275 -0.54954,5.28 -0.8232,17.04 -0.60813,26.13334 0.25878,10.94175 1.13765,20.32117 2.59865,27.73333 1.21418,6.16 3.23692,14.56 4.49497,18.66667 l 2.28735,7.46666 1.40735,-9.6 c 0.77405,-5.28 2.876,-14.27178 4.67101,-19.98175 1.79501,-5.70996 6.63746,-17.90121 10.761,-27.09167 4.12354,-9.19045 9.3032,-21.07866 11.51035,-26.41825 2.20716,-5.33958 4.91376,-12.82833 6.01468,-16.64166 1.40705,-4.87372 2.00798,-10.41883 2.02294,-18.66667 0.0177,-9.782991 -0.36207,-12.575526 -2.28493,-16.8 -1.95288,-4.290456 -2.76477,-5.067278 -5.29951,-5.070654 -1.64632,-0.0022 -4.52723,-0.939277 -6.40202,-2.082409 -1.87479,-1.143133 -4.11913,-3.181339 -4.98743,-4.529346 -0.8683,-1.348008 -2.64049,-5.810923 -3.93821,-9.91759 -1.29772,-4.106666 -3.0257,-8.786666 -3.83996,-10.4 l -1.48051,-2.933363 5.09405,0.006 c 2.80173,0.0033 6.77406,0.473405 8.8274,1.044742 2.05333,0.571335 5.51508,2.508556 7.69276,4.304935 2.77542,2.289448 4.48733,4.940821 5.72476,8.866397 1.55835,4.943671 1.5915,6.215667 0.28276,10.84937 -1.44059,5.100555 -1.38167,5.500377 2.08206,14.126903 2.48075,6.178381 3.78553,11.502742 4.29114,17.510735 l 0.72652,8.63293 8.53333,-9.80162 c 4.69333,-5.390879 14.17333,-14.851873 21.06667,-21.024429 10.01012,-8.963454 12.53804,-11.7959 12.55675,-14.069386 0.0129,-1.565603 0.92064,-4.822274 2.01724,-7.237046 1.09659,-2.414772 3.60605,-5.59454 5.57657,-7.066154 1.97052,-1.471613 4.77652,-3.293654 6.23554,-4.048981 1.45903,-0.755326 5.29903,-1.373964 8.53333,-1.374749 3.50322,-8.51e-4 8.29108,0.936619 11.8432,2.318912 l 5.96263,2.32034 -9.69596,10.019054 c -5.33279,5.51048 -10.74442,10.544733 -12.02585,11.18723 -1.28143,0.642471 -4.97885,1.16815 -8.21648,1.16815 -3.23762,0 -7.12647,-0.564924 -8.64187,-1.25539 -2.55355,-1.163472 -3.15036,-0.8706 -8.15124,4 -2.96778,2.890466 -9.23483,9.81539 -13.92679,15.388724 -4.69197,5.573333 -11.89869,15.157045 -16.01493,21.297135 -4.11626,6.14009 -10.51087,17.42009 -14.21028,25.06666 -3.6994,7.64659 -8.40295,19.18287 -10.45235,25.63621 -2.0494,6.45333 -4.78463,16.53333 -6.0783,22.4 -1.73944,7.88816 -2.36136,14.27872 -2.38754,24.53333 -0.0195,7.62667 0.52979,16.8333 1.2206,20.45919 0.69083,3.62589 2.24326,9.62589 3.44984,13.33333 1.20658,3.70745 3.5965,9.69989 5.31092,13.31654 1.71442,3.61664 5.31283,9.49664 7.99646,13.06666 2.68364,3.57002 5.24237,6.49095 5.68607,6.49095 0.44369,0 2.17521,-2.51437 3.84782,-5.58749 1.6726,-3.07312 6.25018,-10.15312 10.17242,-15.73333 3.92223,-5.58022 8.88537,-13.64434 11.0292,-17.92025 2.14382,-4.27593 5.33039,-12.05025 7.08127,-17.27629 1.75089,-5.22604 3.88524,-14.17703 4.74301,-19.8911 0.85777,-5.71408 1.37616,-14.50072 1.15198,-19.52587 -0.2242,-5.02514 -1.38111,-13.21567 -2.57094,-18.20115 -1.18982,-4.98549 -3.89968,-12.86287 -6.0219,-17.50529 -2.23184,-4.88222 -3.15702,-7.85854 -2.19451,-7.05972 0.91524,0.75958 3.87292,4.92502 6.57264,9.25652 2.69971,4.33151 6.28247,11.41374 7.9617,15.73828 1.67922,4.32456 3.80199,12.11746 4.71725,17.31759 0.91526,5.20012 1.66512,14.25419 1.66635,20.12014 0.001,7.44453 0.32323,10.18258 1.06518,9.06667 0.58463,-0.87929 2.92322,-4.72791 5.19688,-8.55247 2.27364,-3.82457 5.8046,-11.02457 7.84659,-16 2.04197,-4.97544 4.4541,-12.40624 5.36028,-16.51291 0.90617,-4.10667 1.95913,-10.82667 2.33992,-14.93333 0.38078,-4.10667 0.18128,-11.46166 -0.44334,-16.34441 -0.62462,-4.88275 -1.63807,-10.74351 -2.2521,-13.02388 -0.95523,-3.54739 -1.63799,-4.24399 -4.7279,-4.82366 -1.98629,-0.37263 -4.61255,-1.6102 -5.83615,-2.75014 -1.22359,-1.13996 -3.12023,-3.85433 -4.21475,-6.03195 -1.09452,-2.17761 -2.33286,-5.8793 -2.75187,-8.22596 -0.41902,-2.346672 -1.65693,-6.306672 -2.7509,-8.800005 l -1.98907,-4.533334 h 2.52531 c 1.38892,0 5.04968,0.582693 8.135,1.294872 3.84051,0.886496 6.85683,2.484415 9.56413,5.066666 2.33618,2.228281 4.52442,5.681711 5.34728,8.438941 1.18209,3.96096 1.1434,5.62462 -0.25575,10.99497 -1.52867,5.86748 -1.50691,6.83884 0.29916,13.35205 1.07126,3.86333 2.19911,7.2756 2.50633,7.58281 0.30722,0.30722 0.7083,0.35858 0.89129,0.11414 0.18299,-0.24445 2.13956,-2.95858 4.34793,-6.0314 2.20838,-3.07282 6.49866,-7.6702 9.53397,-10.21639 3.0353,-2.54619 7.25539,-5.67206 9.37796,-6.94637 2.69855,-2.02387 6.82097,-2.84287 2.54077,-0.48857 l -3.2,1.74297 7.84258,1.33101 c 5.44518,0.92415 8.65609,2.09015 10.50381,3.81433 1.46367,1.36582 3.5745,4.26418 4.69075,6.44081 1.27743,2.49094 2.02952,6.15643 2.02952,9.89125 v 5.93376 l -2.45705,-1.60993 c -1.35138,-0.88546 -5.20994,-2.55705 -8.57459,-3.71466 -3.36464,-1.1576 -7.54621,-3.12205 -9.29237,-4.36542 -1.74616,-1.24338 -3.8876,-3.63901 -4.75875,-5.32363 -0.87115,-1.68461 -1.5839,-4.28677 -1.5839,-5.78257 0,-1.9576 -0.56597,-2.71964 -2.01986,-2.71964 -1.29874,0 -3.7688,2.57055 -6.91855,7.2 -3.57094,5.24852 -5.46577,9.51288 -6.99096,15.73334 -1.15076,4.69333 -2.82775,15.26504 -3.72667,23.49269 -0.89891,8.22766 -1.96162,16.59558 -2.36158,18.5954 l -0.72722,3.63605 3.10575,-2.20169 c 1.70816,-1.21092 6.46575,-3.9015 10.57242,-5.97905 4.10667,-2.07756 10.58667,-4.76065 14.4,-5.96244 3.81333,-1.20178 10.05333,-2.67551 13.86667,-3.27496 3.81333,-0.59943 9.26536,-1.09351 12.11563,-1.09795 4.93038,-0.007 5.15119,-0.132 4.54233,-2.55793 -0.48626,-1.93741 -0.0196,-2.95634 1.9426,-4.24206 1.42042,-0.93069 4.50761,-1.99999 6.86041,-2.37622 3.21364,-0.51388 5.43734,-0.12273 8.93891,1.57234 2.5636,1.24102 5.67504,3.62784 6.91431,5.30404 1.23928,1.6762 2.80211,5.08603 3.47295,7.57739 0.67086,2.49135 1.01153,4.73793 0.75707,4.99239 -0.25446,0.25447 -2.56602,-0.0223 -5.13677,-0.61492 -2.57076,-0.59268 -6.50566,-1.08933 -8.74423,-1.10367 -2.23857,-0.0144 -5.11857,-0.56606 -6.4,-1.22604 -1.28143,-0.65998 -3.29661,-2.07723 -4.47817,-3.14946 -2.08166,-1.88905 -2.44408,-1.88486 -11.68808,0.13521 -5.59821,1.22337 -13.55266,4.03686 -19.25209,6.80946 -5.34175,2.59862 -14.01612,8.05098 -19.27637,12.11637 -5.26025,4.06538 -13.08137,11.41839 -17.38027,16.34 -4.2989,4.92161 -9.72711,11.74421 -12.0627,15.16134 -2.33557,3.41713 -5.64429,9.03021 -7.35268,12.4735 -1.70841,3.44331 -3.10619,6.72136 -3.10619,7.28457 0,0.56321 2.30208,0.14929 5.11573,-0.91981 2.81364,-1.0691 8.84838,-2.46299 13.41051,-3.09752 4.56214,-0.63453 12.46007,-1.15733 17.55095,-1.16175 5.09088,-0.004 12.37615,-0.50561 16.18948,-1.11372 3.81333,-0.60812 9.87255,-2.47083 13.46494,-4.13937 3.59238,-1.66853 8.52492,-4.83454 10.96119,-7.03557 2.43628,-2.20103 6.40906,-7.06268 8.82842,-10.80367 2.41935,-3.741 4.61152,-6.5891 4.8715,-6.32912 0.25998,0.25997 -1.3701,3.98796 -3.6224,8.28442 -2.45131,4.6761 -6.71006,10.43293 -10.6097,14.34183 -3.58304,3.59155 -8.84866,7.91155 -11.7014,9.6 -2.85272,1.68846 -7.55149,4.08612 -10.44171,5.32814 l -5.25496,2.25821 4.10434,2.78897 c 2.25738,1.53394 7.57199,6.03773 11.81024,10.00845 4.23825,3.97071 9.4894,8.64762 11.66923,10.39312 2.17982,1.74551 4.61364,4.73008 5.40848,6.63241 0.79484,1.90232 1.44516,5.63941 1.44516,8.30465 0,2.67269 -0.98774,6.94722 -2.20252,9.53156 -1.2114,2.57712 -3.08792,5.48695 -4.17006,6.46626 -1.8484,1.67278 -2.00958,1.64816 -2.66174,-0.40662 -0.3818,-1.20297 -2.36666,-4.18903 -4.41076,-6.63566 -2.04411,-2.44665 -4.92491,-6.51031 -6.40178,-9.03039 -1.62548,-2.7737 -2.70888,-6.29891 -2.74523,-8.93259 -0.0403,-2.92155 0.80867,-5.66336 2.58463,-8.347 l 2.64467,-3.99638 -4.38527,-3.3625 c -2.41189,-1.84937 -6.84216,-4.63575 -9.84502,-6.19195 -3.00286,-1.55619 -8.77091,-3.34196 -12.81788,-3.96837 -5.976,-0.92501 -8.95763,-0.81281 -15.87358,0.59727 -4.6835,0.95491 -11.39546,3.16386 -14.91546,4.90877 -3.52,1.74492 -9.33796,5.56314 -12.9288,8.48494 -3.59083,2.92181 -8.70914,8.21288 -11.374,11.75793 -4.4499,5.91967 -4.90774,7.11263 -5.61136,14.62145 -0.42139,4.49675 -0.44732,11.99891 -0.0576,16.67146 0.38967,4.67255 1.92838,14.80131 3.41936,22.50834 1.49096,7.70703 3.62705,19.05278 4.74686,25.21278 1.11979,6.16 2.30628,13.6 2.63664,16.53333 0.33034,2.93334 0.84952,6.50053 1.15374,7.92708 0.30421,1.42656 0.71646,9.10656 0.91612,17.06666 0.19966,7.96012 0.11822,16.51293 -0.18099,19.00626 l -0.544,4.53334 -4.95463,-0.13166 z" style="fill:#bb6c4b;stroke-width:1.06666672" />
  <path id="leaves" style="fill:#75b642;stroke-width:1" d="m 288.49421,312.80282 c -0.52091,0 -3.103,-2.04 -5.73798,-4.53333 -4.2767,-4.04681 -4.85359,-5.16295 -5.37523,-10.4 -0.532,-5.34116 -0.2878,-6.27274 2.72633,-10.4 1.82087,-2.49333 3.83565,-4.53333 4.47731,-4.53333 0.64165,0 2.79864,1.632 4.79331,3.62666 2.41405,2.41405 3.62667,4.63498 3.62667,6.6423 0,1.6586 -0.80175,6.7466 -1.78166,11.30666 -0.97991,4.56008 -2.20785,8.29104 -2.72875,8.29104 z m -139.12404,-10.81502 -3.46247,5.71833 -3.25154,-5.12716 c -2.35567,-3.7145 -3.25154,-6.42117 -3.25154,-9.82377 0,-2.58315 0.72527,-6.20918 1.61172,-8.05784 0.88644,-1.84866 3.27971,-4.4412 5.31837,-5.7612 2.03866,-1.32 4.42232,-2.4 5.29702,-2.4 0.87471,0 2.38689,1.21564 3.36042,2.70143 0.97352,1.48578 1.77005,4.59014 1.77005,6.89857 0,2.30842 -0.88415,5.53279 -1.96478,7.16523 -1.08063,1.63245 -3.52289,5.54135 -5.42725,8.68641 z m 163.92853,-0.40979 c -1.8484,1.67278 -2.00958,1.64816 -2.66174,-0.40662 -0.3818,-1.20297 -2.36666,-4.18903 -4.41076,-6.63566 -2.04411,-2.44665 -4.92491,-6.51031 -6.40178,-9.03039 -1.60124,-2.73232 -2.70896,-6.30387 -2.74406,-8.84757 -0.0362,-2.61877 0.84657,-5.73067 2.28636,-8.06029 1.28988,-2.08706 2.80519,-3.79466 3.36739,-3.79466 0.56219,0 2.80304,0.91605 4.97967,2.03565 2.17663,1.11961 5.24696,3.39961 6.82298,5.06667 1.57601,1.66706 3.37601,4.38226 4,6.03379 0.62398,1.65152 1.13452,5.13676 1.13452,7.74496 0,2.6082 -0.99113,6.85074 -2.20252,9.42786 -1.2114,2.57712 -3.08792,5.48695 -4.17006,6.46626 z m -218.746767,-3.79261 -1.80872,3.64925 -2.93146,-4.42973 c -1.6123,-2.43635 -3.16949,-6.54158 -3.46042,-9.12276 -0.29094,-2.58117 0.0586,-6.47318 0.77658,-8.64892 0.93472,-2.83222 2.68749,-4.83226 6.1708,-7.04131 3.48352,-2.20918 5.2407,-2.77383 6.18731,-1.98821 0.727147,0.60348 2.117497,2.77343 3.089657,4.82211 1.44295,3.0408 1.54693,4.39343 0.56618,7.36514 -0.66076,2.00214 -2.45684,5.46386 -3.991287,7.69272 -1.53444,2.22885 -3.60383,5.69463 -4.59864,7.70171 z m 233.347667,1.15076 c -0.27361,0 -0.80687,-2.76 -1.18501,-6.13334 -0.37814,-3.37333 -0.97615,-8.64277 -1.3289,-11.70985 -0.61208,-5.32205 -0.46991,-5.74798 3.11545,-9.33334 2.06625,-2.06625 4.22784,-3.75681 4.80354,-3.75681 0.5757,0 2.4157,1.79482 4.08889,3.98847 2.49496,3.27107 3.04216,5.04627 3.04216,9.8694 0,4.18965 -0.60203,6.67904 -2.09339,8.65618 -1.15136,1.52639 -3.86005,4.04516 -6.01931,5.59727 -2.15927,1.55211 -4.14981,2.82202 -4.42343,2.82202 z m -61.77498,-11.73334 c -0.46934,0 -0.85334,-3.19782 -0.85334,-7.10628 0,-5.68453 0.54182,-8.03083 2.70815,-11.72739 1.48949,-2.54161 4.02607,-5.30264 5.63687,-6.13561 1.61078,-0.83297 4.59711,-1.82748 6.63627,-2.21003 2.03917,-0.38255 5.02259,-0.19559 6.62982,0.41548 2.49163,0.94732 2.92223,1.72038 2.92223,5.24636 0,2.5293 -0.94267,5.54292 -2.42727,7.75973 -1.60767,2.40058 -5.08255,4.95625 -10.29096,7.56871 -4.32504,2.16936 -8.36877,4.44936 -8.98607,5.06667 -0.6173,0.6173 -1.50637,1.12236 -1.9757,1.12236 z m -143.32388,-2.07479 c -0.8962,0.74379 -1.42426,-0.33995 -1.91688,-3.93404 -0.37396,-2.72835 -0.17958,-6.8188 0.43197,-9.08991 0.61154,-2.27109 2.57118,-5.7913 4.35476,-7.82269 1.80474,-2.05548 4.97783,-4.1753 7.15511,-4.78004 2.15174,-0.59765 5.48413,-1.08931 7.40532,-1.09257 2.77087,-0.004 3.70815,0.55974 4.53333,2.73015 0.57215,1.50485 1.04027,3.88816 1.04027,5.29621 0,1.40807 -1.51764,4.28861 -3.37253,6.40121 -1.85489,2.11261 -6.75244,5.5115 -10.88346,7.5531 -4.13101,2.0416 -8.06757,4.17396 -8.74789,4.73858 z m 118.86901,-2.56975 c -1.51809,1.34463 -1.818,1.32005 -2.4,-0.19665 -0.36583,-0.9533 -0.65459,-3.97403 -0.64171,-6.71272 0.0129,-2.73867 0.9162,-6.94524 2.00738,-9.34791 1.12534,-2.47788 3.53879,-5.32902 5.57658,-6.58793 1.97593,-1.22068 5.27262,-2.34111 7.32595,-2.48984 2.05333,-0.14874 5.05333,-0.18417 6.66667,-0.0787 2.75251,0.17986 2.93333,0.4978 2.93333,5.15766 0,3.72902 -0.70433,5.88941 -2.82765,8.67323 -1.80515,2.36668 -5.373,4.85334 -9.86666,6.87675 -3.87146,1.74323 -7.81972,3.861 -8.77389,4.70616 z M 51.418213,273.33616 c -0.10528,0 -0.51137,-0.32 -0.90248,-0.71112 -0.39111,-0.3911 -0.71111,-3.19561 -0.71111,-6.23222 0,-3.69759 0.8064,-7.04604 2.44152,-10.13811 1.34284,-2.53934 3.66935,-5.5337 5.17003,-6.65412 1.65044,-1.23223 5.26392,-2.26703 9.14549,-2.61899 3.52935,-0.32002 6.67537,-0.16118 6.99116,0.35301 0.31579,0.51419 0.85039,2.68058 1.188,4.81421 0.46714,2.95229 0.0463,4.71743 -1.76118,7.38642 -1.52249,2.24819 -5.78423,5.3546 -11.87254,8.65399 -5.22364,2.83081 -9.58364,5.14693 -9.68889,5.14693 z m 55.844147,-4.35554 c -0.37158,0.0488 -0.96503,-0.99113 -1.31877,-2.31113 -0.35375,-1.32 -0.64974,-4.94384 -0.65775,-8.05297 -0.009,-3.10913 0.70494,-7.04432 1.58432,-8.74486 0.87938,-1.70054 3.24559,-4.3479 5.25823,-5.88301 2.48802,-1.89772 5.51205,-2.98235 9.44737,-3.3885 l 5.78801,-0.59738 0.6048,5.20002 c 0.44633,3.83753 0.1226,6.03679 -1.23556,8.39352 -1.01219,1.75641 -5.65517,5.91642 -10.31771,9.24445 -4.66254,3.32805 -8.78137,6.09098 -9.15294,6.13986 z m -15.335717,-3.49949 c -0.58044,0.17336 -2.38702,-1.70833 -4.01459,-4.18155 -1.62758,-2.47322 -4.61149,-6.80691 -6.63091,-9.63043 -2.01941,-2.82351 -3.99944,-6.88082 -4.40003,-9.01624 -0.45338,-2.41665 -0.16482,-5.47506 0.76423,-8.10039 0.82094,-2.31981 2.29134,-4.71401 3.26756,-5.32045 1.30008,-0.80763 2.9201,-0.58624 6.05524,0.82751 2.35415,1.06158 5.52487,3.22922 7.04606,4.81698 1.52117,1.58777 3.23632,4.52755 3.81143,6.53284 0.5751,2.00531 1.04565,5.63436 1.04565,8.06458 0,2.75203 -1.11061,6.54453 -2.94464,10.05525 -1.61955,3.10017 -3.41955,5.77853 -4,5.9519 z m 252.614767,-0.72102 c -3.41191,-0.0235 -7.52081,-0.75743 -9.13093,-1.63098 -1.6101,-0.87356 -3.8901,-3.47522 -5.06666,-5.78147 -1.17656,-2.30626 -2.1392,-5.64316 -2.1392,-7.41535 0,-2.54965 0.55804,-3.36223 2.67367,-3.89323 1.47053,-0.36908 4.30458,-0.36509 6.29789,0.009 2.58659,0.48524 5.01179,2.27485 8.4707,6.25072 2.66557,3.06396 5.86782,6.61452 7.1161,7.89014 2.26089,2.31036 2.26138,2.32371 0.12575,3.46666 -1.17912,0.63105 -4.93542,1.12814 -8.34732,1.10465 z m -152.34253,-3.156 c -3.63663,0.8202 -3.85164,0.69999 -5.40731,-3.02327 -0.89106,-2.13259 -1.77843,-5.23727 -1.97195,-6.89929 -0.1935,-1.66202 0.128,-4.91227 0.71447,-7.22277 0.62269,-2.45322 2.67582,-5.76626 4.93508,-7.96355 2.26341,-2.20132 6.05154,-4.412 9.12905,-5.32752 2.89315,-0.86069 6.15003,-1.56489 7.23752,-1.56489 1.56395,0 1.76524,0.39618 0.96295,1.89528 -0.55787,1.0424 -1.53073,5.60817 -2.16191,10.14617 -0.63118,4.538 -1.83153,9.88779 -2.66745,11.88843 -0.83592,2.00064 -2.74912,4.44297 -4.25154,5.42739 -1.50243,0.98443 -4.43594,2.17424 -6.51891,2.64402 z m 132.00574,-0.14429 c -1.02667,-0.0786 -5.37995,-0.60794 -9.67396,-1.17619 -6.79064,-0.89863 -8.2838,-1.50968 -11.46666,-4.69254 -2.01266,-2.01266 -3.65938,-4.52898 -3.65938,-5.59184 0,-1.06285 1.01039,-2.84685 2.24532,-3.96444 1.6159,-1.46237 3.83656,-2.03199 7.92178,-2.03199 4.04385,0 6.54261,0.63153 8.68801,2.19578 1.65635,1.20768 4.09155,4.30939 5.41155,6.89268 1.32,2.5833 2.4,5.5552 2.4,6.60423 0,1.15986 -0.73153,1.85127 -1.86666,1.76431 z M 48.014223,249.4477 l -3.3904,2.54735 -0.73009,-5.84345 c -0.40155,-3.21389 -0.40665,-7.17214 -0.0113,-8.7961 0.39531,-1.62397 1.92128,-4.79036 3.39104,-7.03641 1.59828,-2.44246 4.46591,-4.89807 7.13507,-6.10991 2.45453,-1.1144 6.22353,-2.03671 8.37554,-2.0496 2.15202,-0.0129 4.67202,0.26793 5.6,0.62403 1.22026,0.46826 1.68724,2.09115 1.68724,5.8636 0,4.46544 -0.53858,5.81227 -3.74225,9.35835 -2.05823,2.27822 -6.25823,5.21155 -9.33333,6.5185 -3.07509,1.30696 -7.11676,3.52259 -8.98148,4.92364 z m -17.977314,-8.83708 c -6.956355,3.61131 -9.067622,4.30533 -9.51897,3.12914 -0.318992,-0.83127 -0.579986,-3.32053 -0.579986,-5.53167 0,-2.21114 0.546491,-5.65188 1.214425,-7.6461 0.667933,-1.99421 2.227933,-4.75144 3.466666,-6.12718 1.238733,-1.37574 3.458305,-3.12915 4.932382,-3.89647 1.474077,-0.7673 4.354077,-1.49033 6.4,-1.60672 2.045923,-0.11638 4.799857,-0.16297 6.119857,-0.10357 2.14927,0.0967 2.4,0.6567 2.4,5.35956 0,4.08668 -0.60946,5.9758 -2.74769,8.51695 -1.51124,1.796 -6.770243,5.35371 -11.686684,7.90603 z m 318.204711,3.34929 c -0.16702,0.11489 -2.22367,-0.15513 -4.57034,-0.60006 -2.34666,-0.44492 -7.03162,-1.11742 -10.411,-1.49445 -4.2171,-0.47048 -7.10122,-1.49065 -9.19499,-3.25244 -1.67785,-1.41182 -3.66531,-4.0509 -4.41659,-5.86464 -1.22435,-2.95586 -1.1347,-3.52895 0.86493,-5.52859 1.53369,-1.53369 4.02962,-2.38004 7.98646,-2.70818 3.99169,-0.33102 6.77284,0.0487 9.07492,1.2392 1.82563,0.94407 4.59268,3.38595 6.149,5.42639 1.55632,2.04044 3.27778,5.70429 3.82547,8.1419 0.5477,2.4376 0.85916,4.52599 0.69214,4.64087 z m -88.037,-10.10614 c -4.23851,0.0119 -6.13193,-0.51621 -7.7879,-2.17217 -1.51051,-1.51052 -1.9715,-2.91406 -1.48894,-4.53334 0.38444,-1.28999 1.37567,-3.41875 2.20276,-4.73058 0.82708,-1.31183 2.58785,-3.09545 3.91281,-3.9636 1.32497,-0.86815 5.75828,-2.30543 9.85182,-3.19396 4.09352,-0.88853 8.45723,-1.90375 9.69713,-2.25605 2.16465,-0.61506 2.21907,-0.41746 1.36793,4.96682 -0.57287,3.62401 -1.973,6.95577 -3.95846,9.41965 -1.68963,2.09675 -4.22521,4.40521 -5.6346,5.12989 -1.4094,0.72469 -5.08255,1.32469 -8.16255,1.33334 z m 34.73323,-5.17726 -2.86677,2.04345 -2.76034,-2.95857 c -1.5182,-1.62721 -3.2755,-4.66303 -3.90513,-6.74625 -0.99328,-3.28643 -0.71876,-4.90977 2.07439,-12.26666 1.77055,-4.66345 3.49288,-9.34518 3.82742,-10.40385 0.58628,-1.85539 0.7018,-1.85539 3.20006,0 1.42548,1.05867 3.8652,3.84486 5.4216,6.19153 2.45736,3.70514 2.7784,5.1361 2.43929,10.87296 -0.27511,4.65427 -1.00706,7.2885 -2.47713,8.91512 -1.14765,1.26986 -3.37667,3.22838 -4.95339,4.35227 z m -111.7999,-0.20127 c -0.88,-0.027 -3.4,-0.79562 -5.6,-1.70813 -2.33267,-0.96755 -3.99753,-2.38965 -3.99405,-3.4117 0.003,-0.96393 0.50172,-3.53769 1.10766,-5.71947 0.60594,-2.18178 2.34364,-5.44282 3.86156,-7.24677 1.51792,-1.80394 4.71425,-4.27695 7.10296,-5.49558 3.46861,-1.76956 5.65277,-2.11056 10.84736,-1.69359 3.57734,0.28714 8.16255,1.3663 10.18938,2.39811 2.02682,1.03182 3.83718,2.00704 4.02303,2.16716 0.18584,0.16012 -3.77772,4.3975 -8.80793,9.41639 -6.41242,6.39802 -10.33893,9.45661 -13.1379,10.23393 -2.19563,0.60977 -4.71207,1.08661 -5.59207,1.05965 z m 174.77534,-5.89133 c -0.20643,0.17026 -1.60549,-0.0353 -3.10901,-0.45679 -1.50354,-0.42148 -5.94496,-1.11024 -9.86987,-1.53056 -5.8676,-0.62837 -7.68058,-1.30863 -10.19864,-3.82669 -1.68435,-1.68435 -3.30188,-4.31492 -3.59451,-5.84569 -0.39108,-2.04578 0.0679,-3.16073 1.73232,-4.20791 1.2454,-0.78355 3.3861,-1.76022 4.75711,-2.17036 1.371,-0.41014 4.14127,-0.43644 6.15613,-0.0585 2.01487,0.378 5.302,2.12597 7.30473,3.88439 2.23529,1.96261 4.32782,5.26398 5.4192,8.54982 0.97783,2.94399 1.60898,5.492 1.40254,5.66225 z m 34.57831,-1.58204 c -0.45118,-0.0372 -2.00156,-0.53916 -3.44532,-1.11552 -1.44375,-0.57636 -6.24375,-1.30996 -10.66667,-1.63024 -5.03259,-0.36442 -9.817,-1.44375 -12.78623,-2.88447 -2.6095,-1.26618 -5.62203,-3.5134 -6.6945,-4.99383 -1.07248,-1.48043 -2.23952,-4.47609 -2.59344,-6.65703 -0.6253,-3.85326 -0.51145,-4.02526 4.02784,-6.0849 2.56924,-1.16574 6.83134,-2.11954 9.47134,-2.11954 2.64,0 6.81038,0.91273 9.26752,2.0283 2.5767,1.16984 5.82647,3.90427 7.6784,6.46078 1.76599,2.43787 3.6725,5.9546 4.23668,7.81495 0.56419,1.86035 1.31805,4.70245 1.67525,6.31579 0.35721,1.61333 0.28031,2.90291 -0.17087,2.86571 z M 56.110903,216.7924 c -4.91032,-0.007 -8.34402,-0.71181 -12.17295,-2.49692 -2.93333,-1.36758 -5.992107,-3.28289 -6.797275,-4.25624 -1.240809,-1.50001 -1.240809,-1.77066 0,-1.77569 0.805168,-0.003 4.823945,-2.70671 8.930605,-6.00765 4.10667,-3.30093 9.38667,-6.88771 11.73334,-7.97062 2.34666,-1.08292 5.90449,-1.97948 7.90628,-1.99237 2.00179,-0.0129 5.69823,1.18301 8.21431,2.65753 l 4.57469,2.68095 -1.47381,4.17723 c -0.81059,2.29748 -2.29513,5.43073 -3.29897,6.96277 -1.00383,1.53204 -3.83922,3.96585 -6.30087,5.40848 -3.50309,2.05295 -5.96207,2.62069 -11.31535,2.61253 z m 70.493717,-1.73677 c -0.88,0.1417 -2.56,0.0639 -3.73334,-0.17291 -1.17333,-0.23681 -3.59076,-1.52786 -5.37207,-2.86901 -1.78131,-1.34114 -4.63508,-4.53223 -6.34172,-7.09132 -1.70663,-2.5591 -4.50043,-6.1686 -6.20841,-8.02112 l -3.10544,-3.36822 2.51382,-1.4028 c 1.3826,-0.77155 5.66887,-1.41585 9.52506,-1.43179 5.89223,-0.0243 7.71895,0.43938 11.44558,2.90556 2.43891,1.61398 5.40386,4.83486 6.58878,7.1575 1.18492,2.32264 2.1544,6.15296 2.1544,8.51182 0,3.81782 -0.32214,4.35669 -2.93333,4.90674 -1.61333,0.33984 -3.65333,0.73385 -4.53333,0.87555 z M 17.659388,214.63705 c -2.560123,-0.0178 -5.614768,-0.56339 -6.788102,-1.21234 -1.1733333,-0.64895 -3.2589393,-2.19435 -4.6346813,-3.43423 -1.375742,-1.23988 -3.114933,-3.45432 -3.86487,-4.92099 -0.749936,-1.46667 -1.69667503,-3.74667 -2.10386403,-5.06667 -0.73004,-2.36659 -0.606014,-2.4 8.90995003,-2.4 6.4911223,0 11.0945363,0.57787 14.0620073,1.76522 3.17917,1.27205 4.824228,2.7525 5.888252,5.29907 0.812097,1.94363 1.47654,3.94089 1.47654,4.43837 0,0.49748 -1.865355,1.9529 -4.145232,3.23426 -2.547463,1.43176 -5.9394,2.31725 -8.8,2.29731 z M 180.4709,202.60951 c -3.30762,0.53676 -3.71999,0.26706 -5.78702,-3.78465 -1.2241,-2.39942 -2.29698,-6.18366 -2.38419,-8.40942 -0.0873,-2.22576 0.45265,-5.95913 1.1997,-8.29639 0.74705,-2.33726 2.80458,-5.77766 4.57228,-7.64533 1.7677,-1.86766 5.43076,-4.32626 8.14014,-5.46354 2.70937,-1.13727 6.2713,-2.38464 7.91539,-2.77192 2.79041,-0.65731 2.90823,-0.55277 1.77132,1.57159 -0.66987,1.25165 -1.45765,6.66712 -1.75061,12.03436 -0.35685,6.53778 -1.2228,11.22569 -2.62369,14.20359 -1.15007,2.44474 -3.30623,5.24121 -4.79148,6.21437 -1.48524,0.97318 -4.30307,2.02947 -6.26184,2.34734 z m 39.64799,-1.84844 c -1.85952,-0.0229 -4.91026,-0.70689 -6.77943,-1.51984 -1.86916,-0.81295 -4.58745,-3.31416 -6.04065,-5.55825 -1.45318,-2.24408 -3.47775,-7.68016 -4.49903,-12.08016 -1.02126,-4.4 -2.5153,-9.32 -3.32007,-10.93333 -1.45102,-2.9089 -1.43329,-2.93333 2.12799,-2.93333 1.97516,0 5.79272,0.66256 8.48348,1.47236 2.69075,0.80979 6.3779,2.53022 8.19367,3.82316 1.81577,1.29294 4.18124,4.11038 5.25661,6.26097 1.07536,2.1506 2.2715,5.56521 2.65809,7.58804 0.44034,2.30411 0.0674,5.59109 -0.99842,8.8 -1.56133,4.70075 -1.97944,5.1187 -5.08224,5.08038 z m 117.15943,0 c -0.59054,-0.0229 -2.57608,-0.69556 -4.41232,-1.49466 -1.83624,-0.79911 -3.68737,-2.01721 -4.11361,-2.70689 -0.42625,-0.68968 0.003,-3.2922 0.9548,-5.78336 0.95837,-2.50944 3.26111,-5.66156 5.16349,-7.06805 2.36558,-1.74896 5.28579,-2.67261 9.3877,-2.96932 4.50132,-0.32559 7.30311,0.1497 11.48345,1.94803 3.0412,1.30829 5.52945,2.78271 5.52945,3.27649 0,0.49379 -1.08,1.46909 -2.4,2.16734 -1.32,0.69826 -4.8763,3.37612 -7.90289,5.95081 -3.02659,2.57469 -7.10342,5.14028 -9.05962,5.70131 -1.95621,0.56102 -4.03991,1.00127 -4.63045,0.9783 z m -15.20704,-1.15111 c -1.02666,-0.0694 -3.30666,-0.49263 -5.06666,-0.94047 -1.76,-0.44784 -5.01913,-0.87105 -7.2425,-0.94047 -2.22337,-0.0694 -5.84878,-1.0477 -8.05647,-2.17397 -2.20768,-1.12629 -4.58856,-3.30887 -5.29084,-4.85019 -0.70227,-1.54133 -1.27686,-3.9216 -1.27686,-5.28948 0,-1.72944 0.89358,-2.82964 2.93333,-3.61163 1.61334,-0.61851 3.98974,-1.4216 5.28089,-1.78465 1.29116,-0.36304 4.26933,-0.1426 6.61817,0.48988 2.34884,0.63247 5.68956,2.34392 7.42383,3.80321 1.73428,1.45929 3.9161,4.89218 4.84851,7.62863 0.93239,2.73646 1.69527,5.60986 1.69527,6.38535 0,0.77549 -0.84,1.3532 -1.86667,1.28379 z M 39.654644,196.5345 c -2.35582,9.1e-4 -5.940372,-0.88704 -7.965672,-1.97321 -2.025301,-1.08619 -4.524967,-3.12619 -5.554813,-4.53334 -1.029847,-1.40715 -2.611735,-4.35846 -3.515308,-6.55846 l -1.642861,-4 h 8.947648 c 4.921207,0 10.377395,0.28595 12.124855,0.63545 1.74747,0.34949 4.48455,1.67787 6.08242,2.95196 2.05482,1.63846 2.95914,3.40302 3.08945,6.02832 0.16145,3.25239 -0.27782,3.94299 -3.54908,5.57972 -2.05333,1.02734 -5.66082,1.86865 -8.016639,1.86956 z m 54.826539,-1.06501 c -0.45906,0 -2.05909,-1.60531 -3.55561,-3.56735 -1.83967,-2.41194 -2.72262,-4.91665 -2.72609,-7.73333 -0.003,-2.2913 1.28062,-7.76599 2.8521,-12.16599 1.57149,-4.4 3.01881,-8.205 3.21627,-8.45557 0.19746,-0.25056 1.85454,0.94944 3.6824,2.66667 1.82786,1.71723 4.149797,4.93088 5.159867,7.14145 1.44035,3.15224 1.65126,5.22301 0.9778,9.6 -0.70183,4.56136 -1.58144,6.21403 -4.815377,9.04745 -2.17618,1.90667 -4.33229,3.46667 -4.79136,3.46667 z m -24.09026,-6.42342 c -2.22913,-0.0129 -5.97297,-0.90823 -8.31964,-1.98964 -2.34666,-1.08141 -6.42666,-3.88047 -9.06666,-6.22012 -2.64,-2.33965 -6.39397,-5.07421 -8.34215,-6.07679 -2.65318,-1.36539 -3.26163,-2.16089 -2.42439,-3.16969 0.61477,-0.74076 3.70903,-2.65789 6.87615,-4.2603 3.88585,-1.96606 7.46853,-2.92672 11.01743,-2.95421 2.89248,-0.0224 7.01759,0.69403 9.16692,1.59208 2.14932,0.89805 5.56518,3.29012 7.59079,5.31573 2.02561,2.02561 4.18584,5.50432 4.80052,7.73047 0.81249,2.94263 0.78352,4.45006 -0.10614,5.52204 -0.67305,0.81098 -2.55486,2.16286 -4.18179,3.00419 -1.62692,0.84131 -4.78189,1.51912 -7.01102,1.50624 z m 55.680357,-3.19513 c -1.76,0.005 -4.7686,-0.94581 -6.6858,-2.11473 -1.91718,-1.16892 -5.03718,-4.37213 -6.93333,-7.11825 -1.89614,-2.74612 -4.83889,-6.61259 -6.53944,-8.59214 -2.40224,-2.79635 -2.80687,-3.88437 -1.81402,-4.87776 0.78924,-0.78965 4.68561,-1.27857 10.18951,-1.27857 8.37768,0 9.15742,0.1985 13.01402,3.31298 2.6015,2.1009 4.80225,5.18947 6.01531,8.44199 1.12058,3.00456 1.64761,6.33689 1.27241,8.0452 -0.39119,1.78108 -1.551,3.16037 -2.97958,3.54346 -1.28649,0.34498 -3.77908,0.632 -5.53908,0.63782 z m 224.26667,-7.57431 c -0.73333,-0.0694 -2.77333,-0.49263 -4.53333,-0.94047 -1.76,-0.44784 -5.40902,-0.87105 -8.10893,-0.94047 -3.15233,-0.0811 -6.20587,-0.99004 -8.53333,-2.54028 -1.99342,-1.32773 -4.53488,-4.27251 -5.6477,-6.54394 l -2.02328,-4.12986 2.55662,-1.95 c 1.40614,-1.07249 4.5782,-2.25945 7.04901,-2.63769 3.41805,-0.52325 5.60157,-0.15077 9.13049,1.55755 2.55095,1.23489 5.6448,3.60691 6.87522,5.27114 1.23041,1.66422 2.75902,4.90559 3.39689,7.20304 0.63788,2.29744 1.16246,4.53717 1.16572,4.97717 0.003,0.44 -0.59405,0.74321 -1.32738,0.67381 z m -194.87577,-2.57024 c -2.89882,1.49904 -3.06569,1.42425 -6.58075,-2.94943 -3.26673,-4.0647 -3.60669,-5.14068 -3.60833,-11.4208 -0.001,-5.61441 0.48574,-7.61692 2.56113,-10.52683 1.40962,-1.97643 4.76962,-4.99623 7.46666,-6.71069 l 4.90373,-3.11718 0.78315,5.64401 c 0.43075,3.10421 1.09135,9.08481 1.46803,13.29022 0.60966,6.80673 0.42661,8.00885 -1.66726,10.94943 -1.29366,1.81678 -3.69052,3.99535 -5.32636,4.84127 z m -124.057632,-5.6268 c -1.320038,0.25234 -3.965561,0.0531 -5.878938,-0.44265 -2.541058,-0.65846 -4.769511,-2.67519 -8.266596,-7.48122 -2.63325,-3.61886 -4.787728,-6.90771 -4.787728,-7.30858 0,-0.40086 1.08,-1.01827 2.4,-1.37201 1.32,-0.35375 3.470287,-0.64974 4.778415,-0.65775 1.308128,-0.009 4.326568,0.76494 6.707645,1.71766 2.47214,0.98915 4.95041,2.9338 5.777316,4.53333 0.796446,1.54062 1.551137,4.00112 1.677092,5.46779 0.125954,1.46666 0.175875,3.21071 0.110936,3.87564 -0.06494,0.66495 -1.198102,1.41545 -2.518142,1.66779 z m 215.559272,-2.79588 c -2.69746,1.40361 -3.01053,1.28487 -6.20479,-2.35317 -1.85019,-2.10726 -3.81183,-5.00931 -4.3592,-6.44899 -0.54736,-1.43969 -0.99521,-4.95511 -0.99521,-7.81206 0,-2.85695 0.50944,-6.54571 1.13208,-8.19723 0.62266,-1.65153 2.66266,-4.60483 4.53334,-6.56291 1.87068,-1.95807 5.18212,-4.47807 7.35875,-5.6 2.17663,-1.12192 4.21663,-2.03986 4.53333,-2.03986 0.3167,0 0.59293,2.04 0.61382,4.53333 0.0209,2.49334 0.63672,7.17334 1.36848,10.4 0.73177,3.22667 1.06391,8.35945 0.7381,11.40619 -0.41282,3.86032 -1.39349,6.39692 -3.23514,8.36801 -1.45353,1.55567 -3.92112,3.49369 -5.48356,4.30669 z m 31.63579,1.51911 h -5.58076 l -0.57279,-4.27043 c -0.31503,-2.34873 -0.0489,-5.97746 0.59144,-8.06384 0.64033,-2.08637 2.74176,-5.17849 4.66986,-6.87138 1.92808,-1.69289 5.31873,-3.58148 7.53477,-4.19687 2.21603,-0.61541 5.22915,-1.11503 6.69582,-1.1103 1.46667,0.004 3.66101,0.27565 4.87632,0.60202 2.1126,0.56734 2.00873,0.98045 -2.36452,9.40451 -2.51581,4.84611 -5.85561,10.09252 -7.42178,11.6587 -2.35999,2.35999 -3.80321,2.84759 -8.42836,2.84759 z M 87.137953,165.44123 c -0.88,-0.0709 -2.65086,-0.33313 -3.93523,-0.58271 -1.28439,-0.24956 -3.92439,-2.31884 -5.86667,-4.5984 -1.94229,-2.27954 -4.66765,-5.63376 -6.05634,-7.45382 -1.3887,-1.82006 -2.23926,-3.59487 -1.89012,-3.944 0.34913,-0.34914 2.96585,-0.85878 5.81493,-1.13254 3.40294,-0.32698 6.24798,0.0545 8.29264,1.11178 1.71187,0.88525 3.99203,2.58143 5.06704,3.76928 1.075,1.18786 2.22358,4.16559 2.55241,6.61718 0.42559,3.17297 0.16901,4.72897 -0.89039,5.39978 -0.81855,0.51831 -2.20827,0.88436 -3.08827,0.81345 z M 306.8742,164.53616 c -3.71148,0 -4.16843,-0.31119 -4.82123,-3.28338 -0.39663,-1.80587 -0.42216,-4.87718 -0.0568,-6.82514 0.36543,-1.94795 1.69241,-4.84859 2.94882,-6.44586 1.25642,-1.59728 3.86839,-3.56598 5.80438,-4.37488 1.93602,-0.80891 5.91924,-1.47074 8.85163,-1.47074 h 5.33162 l -1.97074,3.46666 c -1.08391,1.90667 -2.8198,5.76465 -3.85754,8.57329 -1.03774,2.80865 -3.29154,6.28865 -5.00846,7.73334 -2.13225,1.79417 -4.42117,2.62671 -7.22173,2.62671 z m -102.42851,-3.7201 c -2.87308,1.48573 -3.09655,1.39817 -6.74888,-2.64452 -2.07758,-2.29963 -4.28862,-6.07963 -4.91343,-8.39999 -0.81311,-3.01967 -0.79917,-5.78951 0.0491,-9.74456 0.73994,-3.45023 2.43021,-6.94385 4.50017,-9.3014 1.82331,-2.07664 5.12588,-4.9188 7.33905,-6.31591 2.21315,-1.39711 4.45754,-2.54019 4.98752,-2.54019 0.52998,0 1.27576,3.24 1.6573,7.2 0.38153,3.96 0.96408,10.82774 1.29456,15.26166 0.56923,7.63717 0.4483,8.24298 -2.29649,11.50499 -1.59355,1.89382 -4.23452,4.13478 -5.86883,4.97992 z m 147.81508,0.5201 c -4.04362,0 -4.709,-0.33515 -5.29417,-2.66667 -0.36812,-1.46667 -0.38113,-3.98667 -0.0289,-5.6 0.35221,-1.61333 1.11574,-4.19577 1.69674,-5.73873 0.6351,-1.68661 3.10405,-3.91988 6.19099,-5.6 3.38344,-1.8415 6.77328,-2.7946 9.93941,-2.7946 h 4.80482 l -3.71981,8.8 c -2.0459,4.84 -4.89979,9.88 -6.34198,11.2 -1.87562,1.71669 -3.93893,2.4 -7.24706,2.4 z M 50.105543,160.22478 c -2.21884,-0.0245 -5.55578,-0.86459 -7.41542,-1.86667 -1.85965,-1.00207 -4.27876,-3.02195 -5.375811,-4.48862 -1.09705,-1.46667 -2.575525,-4.00925 -3.285498,-5.65019 -0.709974,-1.64094 -1.290861,-3.44094 -1.290861,-4 0,-0.57496 4.517331,-1.01475 10.4,-1.01249 8.5453,0.003 11.02899,0.38747 13.92699,2.15434 1.93985,1.1827 4.17898,3.70091 4.97586,5.59601 1.10941,2.63837 1.15775,3.79677 0.20633,4.94422 -0.68338,0.82422 -2.7871,2.14422 -4.67492,2.93334 -1.88783,0.78913 -5.24783,1.41465 -7.46667,1.39006 z m 62.952047,-4.26467 c -2.22913,-0.0235 -5.49297,-0.80888 -7.25297,-1.74533 -1.76,-0.93644 -5.38974,-3.73202 -8.066077,-6.2124 -2.67636,-2.48039 -5.91636,-5.07189 -7.2,-5.75887 -1.28366,-0.68699 -2.33392,-1.6238 -2.33392,-2.0818 0,-0.45799 2.04,-1.98748 4.53333,-3.39887 3.38266,-1.91479 6.17652,-2.57382 11.007027,-2.59641 5.34284,-0.025 7.26737,0.49446 11.01708,2.97361 2.86193,1.89219 5.29322,4.65549 6.56953,7.46667 1.1144,2.45452 2.03672,5.29045 2.0496,6.30205 0.0129,1.01161 -1.39273,2.57161 -3.1236,3.46667 -1.73087,0.89506 -4.97087,1.60817 -7.2,1.58468 z m 221.87755,-5.29062 h -5.9505 l 0.55172,-7.71117 c 0.52345,-7.3158 0.75858,-7.88998 4.5859,-11.19843 2.21879,-1.91799 5.75501,-3.96529 7.85826,-4.54955 2.10325,-0.58425 6.1441,-1.06497 8.97965,-1.06823 2.83556,-0.003 4.98411,0.35405 4.77456,0.79405 -0.20955,0.44 -2.41441,4.88 -4.8997,9.86666 -2.48529,4.98667 -5.74061,10.14667 -7.23404,11.46667 -2.12428,1.87759 -4.0106,2.4 -8.66585,2.4 z M 64.414163,146.40282 c -0.23634,0 -0.19698,-2.52 0.0875,-5.6 0.28446,-3.08 1.40957,-7.37219 2.50025,-9.5382 1.09066,-2.16602 3.70209,-5.24939 5.80315,-6.85196 2.74296,-2.09215 5.45117,-3.049 9.60447,-3.39343 3.37097,-0.27955 7.14974,0.0859 9.05691,0.87586 3.10448,1.28592 3.2348,1.57914 2.53718,5.70835 -0.40447,2.39404 -1.39042,5.35248 -2.19099,6.57432 -0.80058,1.22183 -3.25989,3.21955 -5.46514,4.43937 -2.20523,1.21982 -6.55351,2.7507 -9.66282,3.40194 -3.10931,0.65125 -7.04548,1.90402 -8.74703,2.78392 -1.70155,0.87991 -3.28711,1.59983 -3.52346,1.59983 z M 313.0561,135.182 c -0.30085,5.41738 -0.42832,5.64807 -2.34356,4.24124 -1.11397,-0.81826 -4.47397,-2.2817 -7.46666,-3.25206 -2.9927,-0.97037 -7.05071,-2.73494 -9.01782,-3.92124 -1.9671,-1.18632 -4.4853,-3.64722 -5.59601,-5.4687 -1.1107,-1.82146 -2.02126,-4.54001 -2.02344,-6.04121 -0.002,-1.50121 0.66699,-3.64709 1.48709,-4.76864 1.37732,-1.88361 2.03734,-1.94561 8.65082,-0.81278 4.79131,0.82071 8.03733,2.04532 9.81272,3.70198 1.45915,1.36156 3.58944,4.30186 4.73401,6.534 1.48109,2.88848 1.98929,5.70996 1.76285,9.78741 z m -153.12244,3.64429 c -1.61097,0.44299 -4.75772,0.41046 -6.99276,-0.0722 -2.23504,-0.48273 -5.00849,-1.38331 -6.16321,-2.0013 -1.27142,-0.68044 -1.77787,-1.6284 -1.28406,-2.40343 0.44848,-0.7039 1.54193,-3.43982 2.42988,-6.07982 1.25635,-3.73533 2.765,-5.56893 6.80165,-8.26666 4.07544,-2.72365 6.29797,-3.46667 10.36959,-3.46667 3.21268,0 7.4806,1.01638 11.22914,2.67416 l 6.04676,2.67417 -4.14968,3.04794 c -2.28233,1.67636 -5.34969,4.35991 -6.81635,5.96344 -1.46667,1.60354 -3.9886,3.86266 -5.60429,5.02027 -1.6157,1.1576 -4.2557,2.46718 -5.86667,2.91015 z m 74.12424,-4.36701 c -1.15293,0.95686 -2.54241,0.69953 -6.17927,-1.14435 -2.58053,-1.30832 -5.51486,-3.81877 -6.52071,-5.57877 -1.05041,-1.83796 -2.27396,-7.51317 -2.87462,-13.33334 -0.57516,-5.57333 -1.35894,-10.93272 -1.74171,-11.90976 -0.62745,-1.60155 -0.24186,-1.65405 3.91686,-0.53333 2.53706,0.6837 6.65279,2.41146 9.14607,3.83946 3.10813,1.78015 5.25652,4.09046 6.83397,7.34904 1.44864,2.99249 2.23453,6.50303 2.12198,9.47876 -0.0983,2.59934 -0.86197,6.04724 -1.69697,7.66198 -0.83502,1.61474 -2.18754,3.49139 -3.0056,4.17031 z m -99.10865,-3.28495 c -1.04437,0.85997 -2.47283,0.61575 -5.49413,-0.93934 -2.58735,-1.33172 -4.6283,-3.40693 -5.572,-5.66552 -0.97717,-2.33871 -1.44597,-7.2662 -1.36355,-14.33202 0.0691,-5.92238 0.55561,-10.767962 1.08115,-10.767962 0.52556,0 2.78188,0.931722 5.01405,2.070492 2.23217,1.13877 5.52237,3.73775 7.31154,5.7755 2.27197,2.58763 3.47303,5.30445 3.98245,9.00844 0.57976,4.21539 0.29061,6.16355 -1.4094,9.49586 -1.17635,2.30584 -2.7739,4.71538 -3.55011,5.35455 z m -70.744627,-7.24778 c -2.34667,-3.8e-4 -6.90667,-0.99032 -10.13334,-2.19985 -3.22666,-1.20955 -7.63481,-2.76038 -9.79587,-3.44629 -2.16106,-0.68591 -4.21878,-1.53668 -4.572705,-1.89061 -0.353924,-0.35392 1.485605,-2.83419 4.087855,-5.5117 3.17958,-3.27155 6.24998,-5.27714 9.36167,-6.11502 2.54667,-0.68575 6.71615,-0.96092 9.26552,-0.61149 2.54935,0.34943 6.01523,1.61799 7.70194,2.81903 1.68671,1.20105 4.07954,3.60607 5.31741,5.34449 l 2.25066,3.16077 -2.29783,2.93013 c -1.26381,1.61159 -3.33752,3.51313 -4.60824,4.22568 -1.27073,0.71255 -4.23041,1.29523 -6.57707,1.29486 z m 193.790157,-4.27461 c -1.57125,-0.0463 -3.57683,-0.3214 -4.45683,-0.61132 -0.88,-0.28991 -2.61878,-1.02038 -3.86397,-1.62324 -1.24518,-0.60286 -3.33617,-3.00383 -4.64663,-5.33548 -1.31047,-2.33166 -3.05166,-7.10711 -3.86933,-10.61211 -0.81765,-3.50501 -2.21899,-7.788942 -3.11409,-9.519855 -1.58828,-3.07142 -1.56459,-3.147114 0.98525,-3.147114 1.43697,0 5.13705,0.582693 8.22237,1.294872 3.84051,0.886496 6.85683,2.484415 9.56413,5.066666 2.28841,2.182722 4.52457,5.682431 5.3077,8.306851 1.08097,3.6225 1.08917,5.7152 0.0408,10.4 -1.19939,5.35943 -1.55876,5.85769 -4.16936,5.78073 z m 17.73034,-4.48216 c -4.50347,0.5076 -4.64566,0.4277 -6.02458,-3.38563 -1.11063,-3.07141 -1.15192,-4.99065 -0.19333,-8.9865 0.6704,-2.79455 2.46035,-6.419839 3.97768,-8.056207 1.51733,-1.636368 4.24999,-3.582887 6.07258,-4.325599 1.8226,-0.742711 5.563,-1.674267 8.31199,-2.070123 l 4.99818,-0.71974 -1.96838,5.121753 c -1.0826,2.816965 -2.72915,7.795616 -3.65901,11.063676 -0.92985,3.26805 -2.86338,7.04365 -4.29672,8.39021 -1.57511,1.47973 -4.43073,2.65395 -7.21841,2.96816 z m -94.4879,-3.02864 c -1.68055,1.97822 -2.16368,2.03949 -5.82292,0.73846 -2.19466,-0.7803 -5.23957,-2.23728 -6.76644,-3.23772 -1.52687,-1.00044 -3.74872,-4.01767 -4.93742,-6.70496 -1.60977,-3.639146 -2.00764,-6.18345 -1.55912,-9.970419 0.3312,-2.796443 1.62584,-7.091008 2.877,-9.543475 l 2.27482,-4.459031 1.6966,2.519413 c 0.93313,1.385677 4.15847,5.159413 7.16742,8.38608 3.00894,3.226667 6.10323,7.418668 6.87618,9.315557 0.83506,2.049305 1.12559,4.940235 0.71593,7.123885 -0.37919,2.02125 -1.51411,4.64574 -2.52205,5.83221 z m 139.19458,2.21993 c -1.29829,-0.0229 -3.88272,-0.7039 -5.74319,-1.51319 -1.86048,-0.80929 -3.9346,-2.5027 -4.60915,-3.76312 -0.9774,-1.8263 -0.8744,-2.82899 0.5073,-4.93772 0.95358,-1.45534 3.26769,-3.58135 5.14248,-4.724489 1.87479,-1.143131 5.25617,-2.080216 7.51417,-2.082409 2.25801,-0.0022 5.75466,0.778605 7.77033,1.735105 2.01568,0.956503 5.09749,3.476503 6.84848,5.600003 l 3.18361,3.86091 -3.581,0.7474 c -1.96956,0.41107 -6.07661,1.73107 -9.12677,2.93333 -3.05017,1.20226 -6.60798,2.16715 -7.90626,2.14418 z M 99.654243,112.74444 c -2.47775,0.53824 -3.11853,0.19867 -4,-2.11979 -0.57729,-1.51839 -1.04962,-4.18488 -1.04962,-5.92553 0,-1.74065 0.6799,-4.792066 1.5109,-6.780926 0.83101,-1.988859 2.76948,-4.440752 4.307717,-5.448652 1.53825,-1.007899 5.4659,-2.452992 8.72811,-3.211316 5.43865,-1.264257 5.88241,-1.229685 5.3429,0.416245 -0.32361,0.987259 -1.51975,4.959195 -2.65807,8.826523 -1.13834,3.867326 -2.69846,8.038316 -3.46694,9.268856 -0.7685,1.23055 -2.37992,2.70903 -3.58094,3.28552 -1.20103,0.57648 -3.51135,1.33656 -5.134057,1.68907 z m -62.452397,-5.91747 c -0.988474,-0.0601 -3.388586,-0.48584 -5.33358,-0.9462 -1.944996,-0.46036 -4.702664,-1.9327 -6.128153,-3.27188 -1.425489,-1.33918 -3.789392,-4.838128 -5.253117,-7.775443 -1.463726,-2.937314 -2.546057,-5.39477 -2.405182,-5.461012 0.140877,-0.06624 5.60698,0.139612 12.146895,0.457455 9.870114,0.479692 12.290404,0.939573 14.242534,2.706229 1.29348,1.170584 3.00181,3.385359 3.7963,4.921724 1.30428,2.522185 1.216,3.007447 -0.9092,4.998137 -1.29455,1.2126 -3.70497,2.71671 -5.3565,3.34246 -1.65152,0.62574 -3.811521,1.08858 -4.799997,1.02853 z m 44.521547,-0.10782 c -2.89634,0.24821 -4.30006,-0.32601 -6.51888,-2.66667 -1.55524,-1.64064 -3.55477,-5.622992 -4.4434,-8.849659 -0.88864,-3.226666 -1.96253,-7.019946 -2.38642,-8.429512 -0.74613,-2.481063 -0.62681,-2.543542 3.73921,-1.957936 2.48047,0.3327 6.37532,1.839369 8.65525,3.348153 3.02998,2.005146 4.45406,3.889787 5.29277,7.004513 0.69591,2.584413 0.7943,5.633351 0.25004,7.748031 -0.77108,2.99587 -1.41707,3.53129 -4.58857,3.80308 z m 53.014557,-5.18394 c -1.24667,-0.0372 -3.24052,-0.46245 -4.43079,-0.94504 -1.19028,-0.48259 -4.19028,-3.141225 -6.66667,-5.908085 -2.4764,-2.76686 -4.50254,-5.46021 -4.50254,-5.98522 0,-0.52501 -1.69941,-2.835618 -3.77649,-5.134683 -2.64091,-2.923172 -3.38996,-4.418998 -2.49108,-4.97454 0.70697,-0.436932 4.71347,-1.014422 8.90332,-1.28331 6.29367,-0.403903 8.38752,-0.09627 12.04507,1.769669 2.82887,1.443177 5.40648,3.929659 7.13983,6.887404 1.82707,3.117661 2.71268,6.208842 2.71268,9.468465 0,4.567039 -0.18774,4.87717 -3.33333,5.50629 -1.83333,0.36666 -4.35333,0.63624 -5.6,0.59905 z m 172.59524,-2.711741 c -1.5137,0.457143 -2.91865,-0.09407 -4.48242,-1.758626 -1.25271,-1.333458 -3.06239,-4.302562 -4.02148,-6.598009 -1.17329,-2.808073 -1.52893,-5.606547 -1.087,-8.553521 0.36125,-2.408991 1.60204,-5.934272 2.7573,-7.833959 1.15528,-1.899688 4.38152,-4.905043 7.16943,-6.678567 l 5.06893,-3.22459 0.29122,2.446646 c 0.16018,1.345654 1.03786,6.405265 1.9504,11.243578 1.28359,6.805526 1.39176,9.607255 0.47783,12.37648 -0.64975,1.968751 -2.24743,4.554962 -3.5504,5.747136 -1.30298,1.192174 -3.36119,2.467218 -4.57381,2.833432 z M 63.137953,97.281748 c -1.17333,0.391122 -4.249,0.401046 -6.83483,0.02205 -3.55184,-0.520582 -5.50806,-1.602526 -8,-4.424614 -1.81417,-2.054543 -5.13286,-6.282656 -7.37486,-9.395807 -3.030869,-4.208557 -3.727885,-5.875637 -2.717676,-6.499981 0.74727,-0.461839 3.541626,-1.134166 6.209686,-1.494061 2.95036,-0.397975 6.34087,-0.112128 8.65356,0.729566 2.09141,0.761156 5.10751,2.425666 6.70246,3.698912 1.59493,1.273246 3.64043,4.488369 4.54554,7.144718 0.90511,2.656348 1.48901,5.882355 1.29755,7.168905 -0.19146,1.286549 -1.3081,2.659189 -2.48143,3.050312 z M 324.71155,93.065501 c -2.19754,0.003 -3.22763,-0.700621 -4,-2.73212 -0.57215,-1.504857 -1.04027,-4.64398 -1.04027,-6.975827 0,-2.331846 0.94395,-6.090007 2.09766,-8.35147 1.43444,-2.811739 3.55845,-4.818905 6.71794,-6.348388 2.54115,-1.230153 6.80632,-2.536271 9.47816,-2.902486 l 4.85788,-0.665848 -2.57624,8.390063 c -1.41694,4.614534 -3.25987,9.953348 -4.09539,11.864031 -0.83552,1.910682 -3.08532,4.428887 -4.99957,5.596012 -1.91424,1.167125 -4.81232,2.12384 -6.44017,2.126033 z m -59.0864,-2.676369 c -1.27203,0.136059 -2.80947,-0.05958 -3.41653,-0.434764 -0.60705,-0.37518 -1.4127,-2.614281 -1.79031,-4.975779 -0.52136,-3.260428 -0.11445,-5.510785 1.69098,-9.351682 1.66956,-3.551824 3.54147,-5.651828 6.28606,-7.052014 2.14967,-1.096681 5.68617,-2.327458 7.85888,-2.735062 2.17271,-0.407604 5.67716,-0.417153 7.78766,-0.02123 3.4999,0.656588 3.69754,0.878021 2.24799,2.51871 -0.8741,0.98936 -3.17502,5.075389 -5.11316,9.080066 -1.93814,4.004678 -4.90657,8.444678 -6.5965,9.866667 -1.68994,1.421989 -3.87578,2.646694 -4.85745,2.721567 -0.98165,0.07487 -2.82558,0.247453 -4.09762,0.383512 z m -62.06769,-0.519644 c -2.691,0 -3.37743,-0.575785 -4.40757,-3.697156 -0.71541,-2.167704 -0.91939,-5.702977 -0.49307,-8.545839 0.39991,-2.666776 1.67713,-6.056447 2.83828,-7.532604 1.16114,-1.476156 3.98427,-3.639501 6.2736,-4.807432 2.28934,-1.167931 6.31672,-2.418791 8.94974,-2.779687 l 4.78732,-0.656175 -1.51084,4.676113 c -0.83095,2.571863 -2.25176,7.348894 -3.15735,10.615626 -0.90559,3.266733 -2.49847,6.911383 -3.53974,8.099224 -1.04127,1.187843 -2.94166,2.715062 -4.22309,3.393821 -1.28143,0.67876 -3.7642,1.234109 -5.51728,1.234109 z m -108.296657,-3.2 c -4.34461,0 -4.94246,-0.281907 -5.08978,-2.4 -0.0918,-1.32 -0.16149,-3.992202 -0.15484,-5.938225 0.006,-1.946024 0.95142,-4.796365 2.0995,-6.334092 1.14808,-1.537727 3.37132,-3.754431 4.94051,-4.926007 1.8465,-1.378609 5.095937,-2.292374 9.210197,-2.589973 l 6.3571,-0.459831 -3.60233,8.390731 c -1.98128,4.614902 -4.78023,9.71073 -6.21991,11.324064 -2.14004,2.398163 -3.515747,2.933333 -7.540447,2.933333 z m -14.13243,-4.478049 c -3.41293,0.249184 -5.00684,-0.232991 -7.05208,-2.133333 -1.45339,-1.350407 -4.41098,-4.949427 -6.57243,-7.997821 l -3.92991,-5.542537 3.84161,-0.720689 c 2.11288,-0.39638 5.54555,-0.444177 7.62815,-0.106218 2.0826,0.33796 4.95721,1.381515 6.38801,2.319011 1.4308,0.937496 3.0835,2.972431 3.67267,4.522075 0.58918,1.549646 0.92776,4.284542 0.7524,6.077549 -0.2931,2.99687 -0.67478,3.285998 -4.72842,3.581963 z m 73.048287,-3.071441 c -3.34467,-0.04855 -8.6702,-1.207698 -12.87078,-2.801431 -6.09184,-2.311288 -7.01843,-2.99324 -6.18441,-4.551619 0.53955,-1.008155 2.76647,-3.194863 4.94873,-4.859347 2.82946,-2.158132 5.54813,-3.157395 9.4766,-3.483174 3.72765,-0.309127 6.57276,0.09332 8.79925,1.244683 1.8097,0.935837 4.28626,3.100105 5.50344,4.809483 l 2.21307,3.107961 -3.09026,3.308134 c -2.73948,2.932614 -3.7379,3.298732 -8.79564,3.22531 z m 28.58823,-4.187831 c -2.5042,-0.0022 -5.90743,-0.9067 -7.83565,-2.082409 -1.87479,-1.143133 -4.11913,-3.181339 -4.98743,-4.529346 -0.8683,-1.348009 -2.64049,-5.810924 -3.93821,-9.917591 -1.29772,-4.106666 -3.0257,-8.786666 -3.83996,-10.4 l -1.48047,-2.933333 5.09405,0.006 c 2.80173,0.0033 6.77406,0.473405 8.8274,1.044742 2.05333,0.571335 5.49619,2.492993 7.6508,4.270351 2.61204,2.154696 4.51072,5.017631 5.69773,8.591385 1.50329,4.525966 1.58255,6.183944 0.50947,10.657033 l -1.27078,5.297183 -4.42695,-0.0039 z m -57.86064,-1.062679 c -0.73963,0 -2.32701,-1.248694 -3.52752,-2.774877 -1.20049,-1.526182 -2.50559,-4.49596 -2.90022,-6.599506 -0.48991,-2.611444 -0.11078,-5.368506 1.19521,-8.691789 1.05199,-2.676938 2.43139,-6.907161 3.06532,-9.400495 0.63393,-2.493333 1.46235,-4.533333 1.84091,-4.533333 0.37856,0 2.65316,2.131629 5.05467,4.736954 2.4015,2.605324 4.67622,5.971473 5.05492,7.480329 0.3787,1.508858 0.37447,4.837714 -0.01,7.39746 -0.50597,3.374083 -1.76107,5.717229 -4.56351,8.519671 -2.12546,2.126072 -4.47013,3.865586 -5.20978,3.865586 z m 122.57049,-1.138859 c -3.4119,-0.0397 -7.25898,-0.582131 -8.54905,-1.20539 -1.89946,-0.917667 -2.23569,-1.76616 -1.76777,-4.461141 0.31779,-1.830369 1.04063,-4.857952 1.60631,-6.727961 0.56568,-1.870011 1.99628,-4.63035 3.17913,-6.134088 1.18284,-1.503738 4.32898,-4.010674 6.99142,-5.57097 3.68881,-2.161792 6.27211,-2.837674 10.85532,-2.840149 3.64469,-0.0019 8.36389,0.911006 11.97715,2.317092 l 5.96263,2.320341 -9.69596,10.019054 c -5.33279,5.51048 -10.74442,10.544732 -12.02585,11.187229 -1.28143,0.642496 -5.12143,1.135689 -8.53333,1.095983 z M 203.68278,61.069488 c -0.49104,0 -3.02353,-1.08 -5.62774,-2.4 -2.76798,-1.403001 -5.60347,-3.912271 -6.82566,-6.040371 -1.38152,-2.405538 -2.33659,-6.747367 -2.8156,-12.8 -0.39869,-5.037796 -1.08021,-9.999629 -1.51449,-11.026296 -0.62787,-1.484368 -0.25496,-1.866666 1.82084,-1.866666 1.43573,0 5.46481,1.426355 8.9535,3.169679 5.22351,2.610216 6.75975,4.02729 8.7037,8.028535 1.32,2.716946 2.35029,6.844687 2.3372,9.363653 -0.0129,2.47764 -0.94942,6.544799 -2.08119,9.038133 -1.13176,2.493333 -2.45952,4.533333 -2.95056,4.533333 z m -93.04983,-2.175085 c -0.30892,-0.02296 -2.08544,-0.704558 -3.94782,-1.514656 -1.86239,-0.810098 -4.26239,-2.809952 -5.33333,-4.444119 -1.572257,-2.399117 -1.970197,-5.290915 -2.066707,-15.018678 -0.06574,-6.626104 -0.0044,-12.047462 0.1364,-12.047462 0.14076,0 1.976677,0.718975 4.079817,1.597723 2.10314,0.878747 5.5101,3.078235 7.57102,4.88775 2.10286,1.846334 4.22396,5.006757 4.83376,7.202277 0.59765,2.151738 1.08931,5.376169 1.09257,7.165404 0.003,1.789234 -1.3013,5.269234 -2.89905,7.733333 -1.59775,2.464099 -3.15775,4.461391 -3.46666,4.438428 z m 38.07405,-3.404886 -2.36905,2.200402 -4.08283,-2.111525 c -2.61013,-1.349885 -4.63009,-3.421289 -5.6,-5.742623 -0.97194,-2.326191 -1.51717,-7.502514 -1.51717,-14.403903 0,-10.676047 0.0216,-10.766279 2.4,-10.045971 1.32,0.39976 3.93973,1.658728 5.82163,2.797707 1.88189,1.138981 4.61282,3.486533 6.06874,5.216782 1.4712,1.748427 2.96119,5.240394 3.35415,7.860856 0.40373,2.692227 0.18936,6.283574 -0.49969,8.37141 -0.66371,2.011054 -2.27281,4.646644 -3.57578,5.856865 z m 67.22946,1.313304 c -1.88072,0 -2.87536,-0.717676 -3.3262,-2.4 -0.35375,-1.32 -0.64974,-4.223836 -0.65775,-6.45297 -0.009,-2.229134 0.73667,-5.505685 1.65484,-7.281223 1.08709,-2.102203 3.59853,-4.126447 7.2,-5.803275 3.04183,-1.416264 6.8906,-2.579714 8.55282,-2.585445 2.00721,-0.0069 2.83463,0.437383 2.46367,1.322913 -0.30721,0.733334 -1.33892,3.973334 -2.29268,7.2 -0.95376,3.226667 -2.23888,7.182423 -2.85583,8.790568 -0.61694,1.608145 -2.68189,3.888145 -4.58878,5.066666 -1.90689,1.178522 -4.67443,2.142766 -6.15009,2.142766 z m 29.50563,-10.880195 c -1.70728,0.441205 -4.3748,0.642622 -5.92781,0.447592 -2.29329,-0.287994 -2.89923,-1.00184 -3.22594,-3.800389 -0.22126,-1.895184 -0.0178,-5.390054 0.45216,-7.766378 0.48997,-2.477632 2.18402,-5.680522 3.97149,-7.508788 1.71438,-1.753508 4.99725,-3.751517 7.29526,-4.44002 2.29802,-0.688502 6.40252,-1.251822 9.12112,-1.251822 2.7186,0 4.94291,0.28803 4.94291,0.640066 0,0.352037 -1.86688,4.552037 -4.14862,9.333334 -2.28173,4.781297 -5.32487,9.78473 -6.76252,11.118741 -1.43766,1.33401 -4.01078,2.78646 -5.71805,3.227664 z m -67.10414,-4.335964 c -1.76,0.137781 -4.68326,-0.406784 -6.49615,-1.210141 -1.98741,-0.880704 -5.05792,-4.098927 -7.73333,-8.105392 -2.44045,-3.654607 -4.43719,-6.785001 -4.43719,-6.95643 0,-0.17143 2.3305,-0.632215 5.17888,-1.023968 3.60975,-0.496468 6.34974,-0.223057 9.04331,0.902386 2.12544,0.888065 4.84574,3.203548 6.04512,5.145517 1.35911,2.200612 2.07117,4.93738 1.89002,7.264187 -0.25743,3.306592 -0.65644,3.761968 -3.49066,3.983841 z m -57.94703,-7.183841 c -2.64066,0 -3.22199,-0.511786 -3.7863,-3.333333 -0.36667,-1.833333 -0.66667,-4.49717 -0.66667,-5.919637 0,-1.422468 0.70836,-3.956126 1.57414,-5.630354 0.86577,-1.674228 3.20861,-4.054208 5.2063,-5.288847 1.99768,-1.234638 5.84932,-2.659008 8.55919,-3.165268 2.70987,-0.506258 4.92704,-0.814067 4.92704,-0.68402 0,0.130047 -0.52228,1.868077 -1.16061,3.862288 -0.63834,1.994211 -1.43045,4.345838 -1.76025,5.225838 -0.3298,0.88 -0.77172,2.56 -0.98203,3.733333 -0.21033,1.173334 -0.92583,3.475969 -1.59001,5.116969 -0.66417,1.640999 -2.55615,3.680999 -4.20437,4.533333 -1.64824,0.852334 -4.40063,1.549698 -6.11643,1.549698 z m 93.14703,-3.534008 c -1.76,0.109629 -4.57157,-0.222653 -6.24795,-0.738403 -1.67637,-0.515751 -4.00744,-1.805447 -5.18017,-2.865992 -1.17272,-1.060545 -2.99106,-3.610962 -4.04074,-5.667595 -1.0497,-2.056632 -2.48871,-5.893932 -3.19781,-8.527335 -0.7091,-2.633402 -2.23988,-6.6513379 -3.40172,-8.928746 L 189.35711,0 l 6.28184,0.45438783 c 3.71722,0.26887844 8.4349,1.52145857 11.55555,3.06807747 2.94276,1.4584522 6.32368,4.1986254 7.64927,6.1995595 1.30656,1.9722282 2.69422,5.2844142 3.08368,7.3604142 0.38945,2.076 0.28115,5.982359 -0.2407,8.680797 -0.86252,4.460065 -1.23982,4.924379 -4.1488,5.105577 z"/>
  <path id="red-leaf" d="m 126.78714,97.663039 c -5.99356,-5.638324 -15.04022,-17.891088 -13.98715,-18.944162 1.1773,-1.177297 12.72255,-1.902316 17.56273,-1.102903 2.96181,0.489178 7.5394,3.907433 9.95007,7.430092 2.40256,3.510802 3.08217,5.469155 3.45773,9.963664 0.24412,2.921628 0.15637,3.352954 -0.94195,4.629819 -1.16833,1.358271 -1.40134,1.415881 -6.59173,1.629731 l -5.38059,0.22169 z" style="fill:#ff0000;fill-opacity:1;stroke-width:1.06666672" />
</svg>